<svg xmlns="http://www.w3.org/2000/svg" width="460" height="200" viewBox="0 0 460 200" font-family="Arial, Helvetica, sans-serif">
<rect width="460" height="200" fill="#ffffff"/>
<text x="90" y="14" font-size="12" fill="#000000" font-weight="bold">decimate-by-4: one output per 4 accepted inputs</text>
<text x="82" y="40" font-size="12" fill="#000000" text-anchor="end">clk</text>
<path d="M 90 46 L 90 24 L 110 24 L 110 46 L 130 46" stroke="#595959" fill="none" stroke-width="1.5"/>
<path d="M 130 46 L 130 24 L 150 24 L 150 46 L 170 46" stroke="#595959" fill="none" stroke-width="1.5"/>
<path d="M 170 46 L 170 24 L 190 24 L 190 46 L 210 46" stroke="#595959" fill="none" stroke-width="1.5"/>
<path d="M 210 46 L 210 24 L 230 24 L 230 46 L 250 46" stroke="#595959" fill="none" stroke-width="1.5"/>
<path d="M 250 46 L 250 24 L 270 24 L 270 46 L 290 46" stroke="#595959" fill="none" stroke-width="1.5"/>
<path d="M 290 46 L 290 24 L 310 24 L 310 46 L 330 46" stroke="#595959" fill="none" stroke-width="1.5"/>
<path d="M 330 46 L 330 24 L 350 24 L 350 46 L 370 46" stroke="#595959" fill="none" stroke-width="1.5"/>
<path d="M 370 46 L 370 24 L 390 24 L 390 46 L 410 46" stroke="#595959" fill="none" stroke-width="1.5"/>
<path d="M 410 46 L 410 24 L 430 24 L 430 46 L 450 46" stroke="#595959" fill="none" stroke-width="1.5"/>
<text x="82" y="74" font-size="12" fill="#000000" text-anchor="end">sink.valid</text>
<line x1="90" y1="80" x2="130" y2="80" stroke="#595959" stroke-width="1.5"/>
<line x1="130" y1="80" x2="130" y2="58" stroke="#595959" stroke-width="1.5"/>
<line x1="130" y1="58" x2="170" y2="58" stroke="#595959" stroke-width="1.5"/>
<line x1="170" y1="58" x2="210" y2="58" stroke="#595959" stroke-width="1.5"/>
<line x1="210" y1="58" x2="250" y2="58" stroke="#595959" stroke-width="1.5"/>
<line x1="250" y1="58" x2="290" y2="58" stroke="#595959" stroke-width="1.5"/>
<line x1="290" y1="58" x2="330" y2="58" stroke="#595959" stroke-width="1.5"/>
<line x1="330" y1="58" x2="370" y2="58" stroke="#595959" stroke-width="1.5"/>
<line x1="370" y1="58" x2="410" y2="58" stroke="#595959" stroke-width="1.5"/>
<line x1="410" y1="58" x2="410" y2="80" stroke="#595959" stroke-width="1.5"/>
<line x1="410" y1="80" x2="450" y2="80" stroke="#595959" stroke-width="1.5"/>
<text x="82" y="108" font-size="12" fill="#000000" text-anchor="end">sink.data</text>
<rect x="90" y="92" width="40" height="22" fill="#f8f8f8" stroke="#9a9a9a" stroke-width="1"/>
<line x1="90" y1="92" x2="130" y2="114" stroke="#c0c0c0" stroke-width="1"/>
<rect x="132" y="92" width="36" height="22" fill="#eeeeee" stroke="#595959" stroke-width="1"/>
<text x="150" y="107" font-size="11" fill="#000000" text-anchor="middle">x0</text>
<rect x="172" y="92" width="36" height="22" fill="#eeeeee" stroke="#595959" stroke-width="1"/>
<text x="190" y="107" font-size="11" fill="#000000" text-anchor="middle">x1</text>
<rect x="212" y="92" width="36" height="22" fill="#eeeeee" stroke="#595959" stroke-width="1"/>
<text x="230" y="107" font-size="11" fill="#000000" text-anchor="middle">x2</text>
<rect x="252" y="92" width="36" height="22" fill="#eeeeee" stroke="#595959" stroke-width="1"/>
<text x="270" y="107" font-size="11" fill="#000000" text-anchor="middle">x3</text>
<rect x="292" y="92" width="36" height="22" fill="#eeeeee" stroke="#595959" stroke-width="1"/>
<text x="310" y="107" font-size="11" fill="#000000" text-anchor="middle">x4</text>
<rect x="332" y="92" width="36" height="22" fill="#eeeeee" stroke="#595959" stroke-width="1"/>
<text x="350" y="107" font-size="11" fill="#000000" text-anchor="middle">x5</text>
<rect x="372" y="92" width="36" height="22" fill="#eeeeee" stroke="#595959" stroke-width="1"/>
<text x="390" y="107" font-size="11" fill="#000000" text-anchor="middle">x6</text>
<rect x="412" y="92" width="36" height="22" fill="#eeeeee" stroke="#595959" stroke-width="1"/>
<text x="430" y="107" font-size="11" fill="#000000" text-anchor="middle">x7</text>
<text x="82" y="142" font-size="12" fill="#000000" text-anchor="end">source.valid</text>
<line x1="90" y1="148" x2="130" y2="148" stroke="#595959" stroke-width="1.5"/>
<line x1="130" y1="148" x2="170" y2="148" stroke="#595959" stroke-width="1.5"/>
<line x1="170" y1="148" x2="210" y2="148" stroke="#595959" stroke-width="1.5"/>
<line x1="210" y1="148" x2="250" y2="148" stroke="#595959" stroke-width="1.5"/>
<line x1="250" y1="148" x2="290" y2="148" stroke="#595959" stroke-width="1.5"/>
<line x1="290" y1="148" x2="290" y2="126" stroke="#595959" stroke-width="1.5"/>
<line x1="290" y1="126" x2="330" y2="126" stroke="#595959" stroke-width="1.5"/>
<line x1="330" y1="126" x2="370" y2="126" stroke="#595959" stroke-width="1.5"/>
<line x1="370" y1="126" x2="410" y2="126" stroke="#595959" stroke-width="1.5"/>
<line x1="410" y1="126" x2="450" y2="126" stroke="#595959" stroke-width="1.5"/>
<text x="82" y="176" font-size="12" fill="#000000" text-anchor="end">source.data</text>
<rect x="90" y="160" width="40" height="22" fill="#f8f8f8" stroke="#9a9a9a" stroke-width="1"/>
<line x1="90" y1="160" x2="130" y2="182" stroke="#c0c0c0" stroke-width="1"/>
<rect x="130" y="160" width="40" height="22" fill="#f8f8f8" stroke="#9a9a9a" stroke-width="1"/>
<line x1="130" y1="160" x2="170" y2="182" stroke="#c0c0c0" stroke-width="1"/>
<rect x="170" y="160" width="40" height="22" fill="#f8f8f8" stroke="#9a9a9a" stroke-width="1"/>
<line x1="170" y1="160" x2="210" y2="182" stroke="#c0c0c0" stroke-width="1"/>
<rect x="210" y="160" width="40" height="22" fill="#f8f8f8" stroke="#9a9a9a" stroke-width="1"/>
<line x1="210" y1="160" x2="250" y2="182" stroke="#c0c0c0" stroke-width="1"/>
<rect x="250" y="160" width="40" height="22" fill="#f8f8f8" stroke="#9a9a9a" stroke-width="1"/>
<line x1="250" y1="160" x2="290" y2="182" stroke="#c0c0c0" stroke-width="1"/>
<rect x="292" y="160" width="156" height="22" fill="#eeeeee" stroke="#595959" stroke-width="1"/>
<text x="370" y="175" font-size="11" fill="#000000" text-anchor="middle">y0</text>
</svg>
