<svg xmlns="http://www.w3.org/2000/svg" width="960" height="540" viewBox="0 0 960 540"
     font-family="Arial, Helvetica, sans-serif">
  <!-- LiteDSP architecture, drawn in the LiteX diagram style (grayscale boxes + soft shadows). -->
  <defs>
    <marker id="arrow" markerWidth="9" markerHeight="9" refX="7" refY="4" orient="auto">
      <path d="M0,0 L8,4 L0,8 z" fill="#595959"/>
    </marker>
    <filter id="shadow" x="-20%" y="-20%" width="140%" height="140%">
      <feGaussianBlur in="SourceAlpha" stdDeviation="2"/>
      <feComponentTransfer><feFuncA type="linear" slope="0.4"/></feComponentTransfer>
      <feOffset dx="1.5" dy="2.5" result="shadow"/>
      <feMerge><feMergeNode in="shadow"/><feMergeNode in="SourceGraphic"/></feMerge>
    </filter>
  </defs>
  <style>
    .box    { fill: #eeeeee; stroke: #595959; stroke-width: 2; }
    .inner  { fill: #f3f3f3; stroke: #595959; stroke-width: 1; }
    .white  { fill: #ffffff; stroke: #595959; stroke-width: 2; }
    .title  { font-size: 17px; font-weight: bold; fill: #000000; }
    .label  { font-size: 13px; fill: #000000; }
    .small  { font-size: 11.5px; fill: #595959; }
    .flow   { stroke: #595959; stroke-width: 2; fill: none; marker-end: url(#arrow); }
    .ctrl   { stroke: #595959; stroke-width: 1.5; fill: none; stroke-dasharray: 1,3;
              marker-end: url(#arrow); }
  </style>

  <rect x="0" y="0" width="960" height="540" fill="#ffffff"/>
  <text x="480" y="34" text-anchor="middle" class="title" font-size="20">LiteDSP architecture</text>

  <!-- Frontend (left) -->
  <rect x="30" y="85" width="150" height="130" rx="8" class="box" filter="url(#shadow)"/>
  <text x="105" y="110" text-anchor="middle" class="title">frontend/</text>
  <text x="105" y="135" text-anchor="middle" class="label">ADC / DAC</text>
  <text x="105" y="154" text-anchor="middle" class="label">I/Q packetizers</text>
  <text x="105" y="173" text-anchor="middle" class="label">UDP (LiteEth)</text>
  <text x="105" y="197" text-anchor="middle" class="small">converter boundary</text>

  <!-- DSP blocks (center) -->
  <rect x="220" y="65" width="430" height="270" rx="8" class="box" filter="url(#shadow)"/>
  <text x="435" y="92" text-anchor="middle" class="title">DSP blocks</text>
  <text x="435" y="110" text-anchor="middle" class="small">stream.Endpoint + CSR control</text>
  <g>
    <rect x="238" y="122" width="125" height="40" rx="5" class="inner"/>
    <text x="300" y="147" text-anchor="middle" class="label">generation/</text>
    <rect x="372" y="122" width="125" height="40" rx="5" class="inner"/>
    <text x="434" y="147" text-anchor="middle" class="label">mixing/</text>
    <rect x="506" y="122" width="125" height="40" rx="5" class="inner"/>
    <text x="568" y="147" text-anchor="middle" class="label">filter/</text>
    <rect x="238" y="174" width="125" height="40" rx="5" class="inner"/>
    <text x="300" y="199" text-anchor="middle" class="label">rate/</text>
    <rect x="372" y="174" width="125" height="40" rx="5" class="inner"/>
    <text x="434" y="199" text-anchor="middle" class="label">level/</text>
    <rect x="506" y="174" width="125" height="40" rx="5" class="inner"/>
    <text x="568" y="199" text-anchor="middle" class="label">correction/</text>
    <rect x="238" y="226" width="125" height="40" rx="5" class="inner"/>
    <text x="300" y="251" text-anchor="middle" class="label">comm/</text>
    <rect x="372" y="226" width="125" height="40" rx="5" class="inner"/>
    <text x="434" y="251" text-anchor="middle" class="label">analysis/</text>
    <rect x="506" y="226" width="125" height="40" rx="5" class="inner"/>
    <text x="568" y="251" text-anchor="middle" class="label">stream/</text>
  </g>
  <text x="435" y="292" text-anchor="middle" class="small">Q1.15 fixed-point &#183; valid/ready backpressure &#183; bypass &#183; latency</text>
  <text x="435" y="312" text-anchor="middle" class="small">serial + parallel (N samples/clk) variants</text>

  <!-- LiteX SoC / host (right) -->
  <rect x="690" y="85" width="240" height="130" rx="8" class="box" filter="url(#shadow)"/>
  <text x="810" y="110" text-anchor="middle" class="title">LiteX SoC / host</text>
  <text x="810" y="135" text-anchor="middle" class="label">CSR bus (control / status)</text>
  <text x="810" y="154" text-anchor="middle" class="label">Capture / DMA (Wishbone, LiteDRAM)</text>
  <text x="810" y="173" text-anchor="middle" class="label">Etherbone / litex_server</text>
  <text x="810" y="197" text-anchor="middle" class="small">software/ drivers + litedsp_cli</text>

  <!-- Data flow -->
  <path class="flow" d="M 180 150 L 216 150"/>
  <path class="flow" d="M 650 150 L 686 150"/>
  <!-- Control path (dashed, CSR) -->
  <path class="ctrl" d="M 810 215 L 810 250 L 654 250"/>
  <text x="740" y="242" text-anchor="middle" class="small">CSR</text>

  <!-- Tooling (bottom) -->
  <rect x="30" y="380" width="900" height="120" rx="8" class="white" filter="url(#shadow)"/>
  <text x="480" y="406" text-anchor="middle" class="title">Tooling</text>
  <g>
    <rect x="50"  y="420" width="200" height="62" rx="5" class="inner"/>
    <text x="150" y="444" text-anchor="middle" class="label">Flow (litedsp_flow)</text>
    <text x="150" y="464" text-anchor="middle" class="small">JSON netlist &#8594; chain / AXI IP</text>
    <rect x="270" y="420" width="200" height="62" rx="5" class="inner"/>
    <text x="370" y="444" text-anchor="middle" class="label">GUI (litedsp_gui)</text>
    <text x="370" y="464" text-anchor="middle" class="small">node editor + live mode</text>
    <rect x="490" y="420" width="200" height="62" rx="5" class="inner"/>
    <text x="590" y="444" text-anchor="middle" class="label">Generator (litedsp_gen)</text>
    <text x="590" y="464" text-anchor="middle" class="small">YAML &#8594; standalone Verilog core</text>
    <rect x="710" y="420" width="200" height="62" rx="5" class="inner"/>
    <text x="810" y="444" text-anchor="middle" class="label">Test / Sim / Impl / Bench</text>
    <text x="810" y="464" text-anchor="middle" class="small">golden models, Verilator, P&amp;R budgets</text>
  </g>
  <path class="flow" d="M 435 376 L 435 339"/>
</svg>
